Coordinates
version=1
nRows=19
nColumns=24
inDegrees=yes

Units are S.I. units (second, meters, Newtons, ...)
Angles are in degrees.

endheader
time	pelvis_tilt	pelvis_list	pelvis_rotation	pelvis_tx	pelvis_ty	pelvis_tz	hip_flexion_r	hip_adduction_r	hip_rotation_r	knee_angle_r	ankle_angle_r	subtalar_angle_r	mtp_angle_r	hip_flexion_l	hip_adduction_l	hip_rotation_l	knee_angle_l	ankle_angle_l	subtalar_angle_l	mtp_angle_l	lumbar_extension	lumbar_bending	lumbar_rotation
      5.81500000	     13.51232081	     -7.50748383	      0.79122774	      1.53354343	      0.91336375	     -0.22884550	    -32.59340589	     10.13393220	      1.35414842	    -10.36422670	     23.70137007	     10.15707854	      0.00000000	     10.11155997	     -5.99091792	      7.68718893	     -2.94524240	     11.55022486	     -0.34242588	      0.00000000	    -29.34045732	      5.60436475	      6.44166489
      5.82000000	     13.44856949	     -7.06400917	      0.63638031	      1.54100727	      0.91298799	     -0.22877216	    -32.65918118	      9.55042465	      1.04574389	    -11.07669911	     23.48882350	     10.83743537	      0.00000000	     10.15119058	     -5.45608557	      7.54887040	     -3.54400232	     11.45000522	     -0.64109986	      0.00000000	    -29.22875787	      5.02765845	      6.31776919
      5.82500000	     13.51520559	     -6.56445232	      0.57336357	      1.54846959	      0.91271170	     -0.22886592	    -32.84303168	      8.93657487	      0.55284771	    -11.81350217	     23.26909111	     11.73743116	      0.00000000	     10.06830226	     -4.84035266	      7.54347497	     -4.22033845	     11.41575667	     -0.98146447	      0.00000000	    -29.25974946	      4.42978790	      6.10549330
      5.83000000	     13.49057203	     -6.04139184	      0.46171359	      1.55601080	      0.91242296	     -0.22891337	    -32.90122517	      8.28008843	      0.11456329	    -12.61431355	     23.00178855	     12.56245288	      0.00000000	     10.07157790	     -4.20320762	      7.46857607	     -4.95463716	     11.33471794	     -1.28151159	      0.00000000	    -29.17628366	      3.78983161	      5.92581078
      5.83500000	     13.46479353	     -5.48535122	      0.37846768	      1.56358303	      0.91215327	     -0.22902471	    -32.93441973	      7.59979036	     -0.37724674	    -13.45543310	     22.69205026	     13.42467043	      0.00000000	     10.07847229	     -3.52114558	      7.42728950	     -5.73942018	     11.23733142	     -1.57502024	      0.00000000	    -29.08978065	      3.12718546	      5.71253756
      5.84000000	     13.34274219	     -4.90922302	      0.23809394	      1.57126627	      0.91185529	     -0.22901221	    -32.83742879	      6.88356615	     -0.75629274	    -14.36244152	     22.32981078	     14.14766465	      0.00000000	     10.16678340	     -2.83306319	      7.31153760	     -6.55028579	     11.13105775	     -1.78482154	      0.00000000	    -28.87437528	      2.40421959	      5.55106802
      5.84500000	     13.37514985	     -4.30514336	      0.25818567	      1.57883953	      0.91166147	     -0.22938176	    -32.87729342	      6.17540282	     -1.45361227	    -15.29788728	     21.92858505	     15.21954653	      0.00000000	     10.12092978	     -2.06679769	      7.41361637	     -7.41155404	     10.97892295	     -2.13132628	      0.00000000	    -28.85491614	      1.75668713	      5.23932054
      5.85000000	     13.23070458	     -3.69499732	      0.12067653	      1.58659167	      0.91141253	     -0.22943824	    -32.70019636	      5.40783271	     -1.86519171	    -16.30765057	     21.46152133	     16.00798818	      0.00000000	     10.21662193	     -1.33834570	      7.28483009	     -8.26225164	     10.83137725	     -2.28507745	      0.00000000	    -28.60653415	      1.00490765	      5.07690556
      5.85500000	     13.22670085	     -3.05881516	      0.15818937	      1.59423424	      0.91123156	     -0.22987303	    -32.64740068	      4.66330312	     -2.56427440	    -17.34969739	     20.96538069	     17.07252448	      0.00000000	     10.18911036	     -0.52918029	      7.43053396	     -9.14810930	     10.64618904	     -2.63016898	      0.00000000	    -28.53843557	      0.33179016	      4.74556385
      5.86000000	     13.07174582	     -2.44368578	      0.03533665	      1.60199567	      0.91103456	     -0.23000325	    -32.38997526	      3.87418803	     -2.98932245	    -18.47970795	     20.37789107	     17.92065022	      0.00000000	     10.27317344	      0.20701032	      7.31810027	     -9.99107095	     10.47157458	     -2.72498004	      0.00000000	    -28.27892274	     -0.41750562	      4.61079374
      5.86500000	     13.01574544	     -1.79868909	      0.05790207	      1.60966710	      0.91087067	     -0.23048593	    -32.21436808	      3.09284803	     -3.64886670	    -19.64508661	     19.78566159	     18.93582349	      0.00000000	     10.27109573	      1.02770822	      7.47052250	    -10.86287366	     10.25341341	     -3.05614884	      0.00000000	    -28.15261871	     -1.10308645	      4.31351126
      5.87000000	     12.86469216	     -1.17652831	     -0.05120999	      1.61743354	      0.91071390	     -0.23070480	    -31.89173368	      2.27552822	     -4.08945596	    -20.88897055	     19.11254597	     19.80173524	      0.00000000	     10.32552376	      1.77722734	      7.39095675	    -11.68072351	     10.10308924	     -3.14477694	      0.00000000	    -27.89792514	     -1.84249010	      4.17198416
      5.87500000	     12.76337903	     -0.54434307	     -0.05650682	      1.62513878	      0.91061261	     -0.23114362	    -31.59855053	      1.47856679	     -4.63771693	    -22.16216989	     18.35929950	     20.71733611	      0.00000000	     10.32145859	      2.57133366	      7.51238996	    -12.47673308	      9.85641934	     -3.41227876	      0.00000000	    -27.71440214	     -2.53533841	      3.94906527
      5.88000000	     12.61060904	      0.06683191	     -0.15680192	      1.63289029	      0.91053115	     -0.23141033	    -31.20136396	      0.65317894	     -5.03586220	    -23.50707133	     17.54555848	     21.53599380	      0.00000000	     10.33834938	      3.30752483	      7.44960374	    -13.22126875	      9.70942909	     -3.46897764	      0.00000000	    -27.46026800	     -3.26030073	      3.84228467
      5.88500000	     12.47282692	      0.67249940	     -0.24475386	      1.64058723	      0.91048719	     -0.23174325	    -30.77955481	     -0.17623815	     -5.43620681	    -24.90366266	     16.70499392	     22.31817808	      0.00000000	     10.32527714	      4.04785973	      7.46802893	    -13.93381613	      9.53322548	     -3.62778585	      0.00000000	    -27.22857731	     -3.96057507	      3.72752574
      5.89000000	     12.33683420	      1.26589733	     -0.32656545	      1.64827093	      0.91048972	     -0.23208442	    -30.32479553	     -0.99746231	     -5.79387267	    -26.33623139	     15.79007295	     23.03230744	      0.00000000	     10.28891967	      4.77299276	      7.48924853	    -14.60058265	      9.37230774	     -3.76479442	      0.00000000	    -27.00023014	     -4.64996574	      3.62964853
      5.89500000	     12.20335570	      1.84340400	     -0.41951501	      1.65592269	      0.91054000	     -0.23240926	    -29.83026353	     -1.81518293	     -6.10091744	    -27.81182767	     14.82838501	     23.66337582	      0.00000000	     10.22674432	      5.47624523	      7.51170777	    -15.21602722	      9.23290715	     -3.89437357	      0.00000000	    -26.77520493	     -5.32577524	      3.55736294
      5.90000000	     12.06998481	      2.40561422	     -0.52647522	      1.66352748	      0.91062972	     -0.23271649	    -29.28803926	     -2.63252568	     -6.36739602	    -29.33827486	     13.84818290	     24.20282433	      0.00000000	     10.13972199	      6.15809809	      7.52251002	    -15.77077025	      9.12103969	     -4.03475342	      0.00000000	    -26.55440450	     -5.98858468	      3.51371324
      5.90500000	     11.94347708	      2.94692938	     -0.64909056	      1.67110350	      0.91077665	     -0.23299676	    -28.71526669	     -3.43728512	     -6.55842430	    -30.88410648	     12.82835376	     24.63260199	      0.00000000	     10.02757804	      6.81229336	      7.53358865	    -16.28638234	      9.03935770	     -4.15349573	      0.00000000	    -26.33672542	     -6.63415773	      3.50131285
